<?xml version="1.0" encoding="UTF-8"?>
<!DOCTYPE svg PUBLIC "-//W3C//DTD SVG 1.1//EN" "http://www.w3.org/Graphics/SVG/1.1/DTD/svg11.dtd">
<svg xmlns="http://www.w3.org/2000/svg" version="1.1" width="1024px" height="1024px" style="shape-rendering:geometricPrecision; text-rendering:geometricPrecision; image-rendering:optimizeQuality; fill-rule:evenodd; clip-rule:evenodd" xmlns:xlink="http://www.w3.org/1999/xlink">
<g><path style="opacity:1" fill="#fefefe" d="M -0.5,-0.5 C 340.833,-0.5 682.167,-0.5 1023.5,-0.5C 1023.5,340.833 1023.5,682.167 1023.5,1023.5C 682.167,1023.5 340.833,1023.5 -0.5,1023.5C -0.5,682.167 -0.5,340.833 -0.5,-0.5 Z"/></g>
<g><path style="opacity:1" fill="#5216aa" d="M 118.5,117.5 C 380.5,117.5 642.5,117.5 904.5,117.5C 904.5,380.167 904.5,642.833 904.5,905.5C 642.5,905.5 380.5,905.5 118.5,905.5C 118.5,642.833 118.5,380.167 118.5,117.5 Z"/></g>
<g><path style="opacity:1" fill="#3e029f" d="M 116.5,117.5 C 117.167,117.5 117.833,117.5 118.5,117.5C 118.5,380.167 118.5,642.833 118.5,905.5C 117.833,905.5 117.167,905.5 116.5,905.5C 116.5,642.833 116.5,380.167 116.5,117.5 Z"/></g>
<g><path style="opacity:1" fill="#fefefe" d="M 366.5,271.5 C 425.797,269.026 474.797,290.026 513.5,334.5C 492.791,355.374 472.291,376.374 452,397.5C 420.204,364.844 382.704,356.01 339.5,371C 307.029,386.813 285.196,411.979 274,446.5C 256.618,503.15 263.618,556.483 295,606.5C 330.06,647.888 372.56,657.721 422.5,636C 433.167,629.838 442.834,622.338 451.5,613.5C 471.82,633.319 491.986,653.319 512,673.5C 512.667,674.5 512.667,675.5 512,676.5C 464.246,728.973 405.413,748.473 335.5,735C 268.254,716.091 221.421,674.258 195,609.5C 169.205,536.631 170.538,464.298 199,392.5C 217.638,350.867 246.472,318.367 285.5,295C 310.943,281.347 337.943,273.514 366.5,271.5 Z"/></g>
<g><path style="opacity:1" fill="#fefefe" d="M 692.5,273.5 C 766.813,280.308 812.98,319.974 831,392.5C 836.087,423.436 833.753,453.769 824,483.5C 809.758,518.575 785.258,543.575 750.5,558.5C 782.627,616.586 814.627,674.753 846.5,733C 815.167,733.667 783.833,733.667 752.5,733C 723.333,680.5 694.167,628 665,575.5C 662.931,574.736 660.764,574.236 658.5,574C 647.172,573.5 635.838,573.333 624.5,573.5C 624.5,626.833 624.5,680.167 624.5,733.5C 595.5,733.5 566.5,733.5 537.5,733.5C 537.5,580.167 537.5,426.833 537.5,273.5C 589.167,273.5 640.833,273.5 692.5,273.5 Z"/></g>
<g><path style="opacity:1" fill="#18008d" d="M 116.5,117.5 C 379.333,116.5 642.333,116.167 905.5,116.5C 905.5,379.833 905.5,643.167 905.5,906.5C 642.333,906.833 379.333,906.5 116.5,905.5C 117.167,905.5 117.833,905.5 118.5,905.5C 380.5,905.5 642.5,905.5 904.5,905.5C 904.5,642.833 904.5,380.167 904.5,117.5C 642.5,117.5 380.5,117.5 118.5,117.5C 117.833,117.5 117.167,117.5 116.5,117.5 Z"/></g>
<g><path style="opacity:1" fill="#5216aa" d="M 692.5,362.5 C 720.72,365.894 738.553,381.228 746,408.5C 751.234,434.79 744.4,457.29 725.5,476C 722.806,478.347 719.806,480.18 716.5,481.5C 716.44,480.957 716.107,480.624 715.5,480.5C 708.498,483.778 701.164,485.945 693.5,487C 670.836,487.5 648.169,487.667 625.5,487.5C 625.5,446.167 625.5,404.833 625.5,363.5C 648.006,363.831 670.34,363.497 692.5,362.5 Z"/></g>
<g><path style="opacity:1" fill="#2b0196" d="M 692.5,273.5 C 640.833,273.5 589.167,273.5 537.5,273.5C 537.5,426.833 537.5,580.167 537.5,733.5C 536.547,580.665 536.047,427.665 536,274.5C 563.119,273.171 590.453,272.504 618,272.5C 647.515,272.462 672.348,272.795 692.5,273.5 Z"/></g>
<g><path style="opacity:1" fill="#3e109f" d="M 692.5,362.5 C 670.34,363.497 648.006,363.831 625.5,363.5C 625.5,404.833 625.5,446.167 625.5,487.5C 648.169,487.667 670.836,487.5 693.5,487C 701.164,485.945 708.498,483.778 715.5,480.5C 716.107,480.624 716.44,480.957 716.5,481.5C 707.927,485.394 698.927,487.894 689.5,489C 667.836,489.5 646.169,489.667 624.5,489.5C 624.5,446.833 624.5,404.167 624.5,361.5C 647.181,361.269 669.848,361.602 692.5,362.5 Z"/></g>
</svg>
